<?xml version="1.0" encoding="UTF-8" standalone="no"?><!DOCTYPE svg PUBLIC "-//W3C//DTD SVG 1.1//EN" "http://www.w3.org/Graphics/SVG/1.1/DTD/svg11.dtd"><svg width="100%" height="100%" viewBox="0 0 496 152" version="1.1" xmlns="http://www.w3.org/2000/svg" xmlns:xlink="http://www.w3.org/1999/xlink" xml:space="preserve" xmlns:serif="http://www.serif.com/" style="fill-rule:evenodd;clip-rule:evenodd;stroke-linejoin:round;stroke-miterlimit:2;"><path d="M259.175,83.025c-1.446,1.046 -2.354,0.7 -3.111,-0.659c-1.261,-2.262 -2.194,-4.44 -0.967,-7.217c3.296,-7.454 7.39,-14.35 13.2,-20.107c0.841,-0.844 1.555,-1.689 2.404,-2.482c0.67,-0.521 1.375,-0.995 2.111,-1.418c0.445,0.523 1.034,0.911 1.118,1.393c0.028,0.633 -0.111,1.262 -0.404,1.823c-2.9,6.998 -5.75,14.021 -8.794,20.951c-1.278,2.912 -2.825,5.732 -5.557,7.716Zm190.587,-0c-1.446,1.046 -2.354,0.7 -3.111,-0.659c-1.261,-2.262 -2.194,-4.44 -0.967,-7.217c3.296,-7.454 7.39,-14.35 13.2,-20.107c0.84,-0.844 1.555,-1.688 2.404,-2.482c0.67,-0.521 1.375,-0.995 2.11,-1.418c0.446,0.523 1.035,0.912 1.119,1.393c0.028,0.633 -0.111,1.262 -0.404,1.823c-2.909,6.989 -5.751,14.013 -8.794,20.943c-1.278,2.92 -2.825,5.74 -5.557,7.724Zm-63.123,-56.557c0.551,0.982 1.303,1.835 2.206,2.504c0.903,0.669 1.937,1.138 3.034,1.377c1.096,0.24 2.231,0.243 3.329,0.011c1.098,-0.233 2.135,-0.696 3.042,-1.359c3.758,-2.965 6.696,-6.848 8.533,-11.278c1.455,-3.267 0.908,-5.521 -1.908,-7.909c-2.726,-2.384 -6.168,-3.781 -9.778,-3.968c-1.9,-0.186 -3.363,0.456 -4.111,2.229c-2.018,5.005 -4.204,9.977 -4.792,15.422c-0.132,1.011 0.026,2.038 0.454,2.963l-0.009,0.008Zm-58.011,75.077c-3.64,2.903 -8.189,2.11 -11.232,-1.857c-1.253,-1.638 -1.9,-3.309 -0.925,-5.183c2.396,-4.618 4.523,-9.412 7.155,-13.878c3.85,-6.533 7.751,-13.075 12.199,-19.178c2.715,-3.74 6.406,-6.753 9.828,-9.91c0.841,-0.743 2.59,-1.317 3.472,-0.845c0.883,0.473 1.169,2.22 1.8,3.58c-0.572,4.119 -0.841,8.314 -1.774,12.332c-0.949,4.674 -2.294,9.257 -4.019,13.7c-1.53,3.715 -4.036,6.948 -6.037,10.442c-2.589,4.432 -6.524,7.631 -10.467,10.788l-0,0.009Zm-225.368,2.532c-1.681,0.945 -2.522,0.574 -3.43,-1.283c-0.217,-0.352 -0.384,-0.733 -0.496,-1.131c-0.126,-0.794 -0.152,-1.596 -0.219,-2.398l-0.344,-0.059c0.16,-1.837 0.412,-3.666 0.756,-5.478c1.514,-6.322 4.38,-11.911 7.718,-17.33c3.444,-5.857 7.485,-11.34 12.056,-16.359c3.515,-3.714 7.231,-7.209 11.695,-9.775c2.228,-1.283 4.969,-0.566 6.591,1.756c0.487,0.547 0.761,1.252 0.772,1.985c0.011,0.734 -0.242,1.446 -0.713,2.008c-4.674,6.601 -9.248,13.278 -13.771,19.988c-4.523,6.711 -8.744,13.287 -13.216,19.854c-1.565,2.188 -3.249,4.288 -5.045,6.289c-0.663,0.786 -1.457,1.452 -2.345,1.967l-0.009,-0.034Zm78.189,-20.571c0.941,7.192 -1.682,13.134 -6.987,17.844c-1.984,1.765 -4.809,1.579 -7.356,1.849c-0.644,0.033 -1.29,0.033 -1.934,0l-0.067,0.414c-2.136,-0.397 -4.313,-0.642 -6.39,-1.241c-2.631,-0.76 -3.153,-2.575 -1.286,-4.668c1.487,-1.607 3.113,-3.079 4.859,-4.398c4.952,-3.883 9.955,-7.69 14.965,-11.497c2.304,-1.697 3.851,-1.14 4.221,1.73l-0.025,-0.033Zm-45.064,-69.556c2.388,-0 3.884,0.844 4.885,3.013c1.194,2.343 1.715,4.974 1.505,7.597c-0.244,2.347 -1.118,3.436 -3.498,3.926c-2.95,0.697 -5.944,1.188 -8.962,1.468c-5.23,0.293 -10.441,0.856 -15.612,1.689c-6.533,1.097 -13.066,2.161 -19.59,3.258c-1.219,0.202 -2.421,0.54 -3.64,0.793c-4.473,0.92 -4.481,0.912 -6.642,4.618c-0.567,0.948 -1.084,1.925 -1.547,2.929c-2.598,5.791 -4.994,11.683 -7.802,17.372c-2.631,5.335 -4.801,10.838 -6.902,16.376c-1.682,4.381 -3.212,8.821 -4.759,13.253c-1.084,3.123 -2.06,6.288 -3.119,9.42c-1.326,3.48 -2.227,7.108 -2.682,10.805c-0.151,1.773 -0.731,3.512 -1.051,5.276c-0.922,4.35 -0.631,8.872 0.841,13.067c0.108,0.253 0.201,0.512 0.277,0.776c0.437,1.773 -0.437,3.242 -2.177,3.225c-2.329,0 -4.759,-0.169 -6.768,-1.401c-2.193,-1.427 -4.283,-3.007 -6.255,-4.727c-0.759,-0.605 -1.371,-1.376 -1.789,-2.253c-0.418,-0.878 -0.631,-1.839 -0.624,-2.812c-0,-2.068 -0.185,-4.136 -0.294,-6.204c0.208,-5.533 1.121,-11.017 2.715,-16.317c2.598,-9.286 6.037,-18.343 9.349,-27.409c2.842,-7.766 5.658,-15.557 9.164,-23.07c0.757,-1.621 1.522,-3.242 2.237,-4.879c0.032,-0.13 0.033,-0.266 0.003,-0.397c-0.03,-0.13 -0.091,-0.252 -0.177,-0.354c-0.087,-0.102 -0.196,-0.182 -0.319,-0.234c-0.123,-0.051 -0.257,-0.073 -0.39,-0.062c-2.262,0.599 -4.549,1.114 -6.726,1.866c-6.011,2.059 -12.073,4.001 -17.942,6.398c-6.658,2.71 -13.191,5.706 -19.118,9.927c-2.303,1.537 -4.268,3.531 -5.776,5.858c-1.025,1.689 -1.959,3.377 -1.807,5.403c0.017,0.414 -0.019,0.828 -0.11,1.232c-0.043,0.311 -0.166,0.605 -0.358,0.853c-0.191,0.248 -0.444,0.441 -0.733,0.561c-0.289,0.12 -0.605,0.161 -0.914,0.12c-0.31,-0.04 -0.604,-0.162 -0.853,-0.352c-2.648,-2.313 -4.91,-4.896 -5.204,-8.61c-0,-0.135 -0,-0.279 -0.042,-0.414c-0.715,-5.731 0.664,-10.56 5.036,-14.662c2.742,-2.523 5.793,-4.685 9.08,-6.433c6.612,-3.436 13.426,-6.467 20.404,-9.074c11.317,-4.482 22.978,-7.774 34.689,-10.923c6.264,-1.688 12.662,-2.819 18.984,-4.28c6.726,-1.541 13.494,-2.822 20.304,-3.84c2.858,-0.422 5.734,-0.844 8.609,-1.098c5.364,-0.531 10.686,-1.308 16.1,-1.274Zm82.796,19.491c-5.54,-0 -10.98,0.937 -16.445,1.595c0.169,0.186 0.319,0.39 0.446,0.608c0.183,0.231 0.305,0.505 0.357,0.796c0.052,0.291 0.031,0.59 -0.061,0.871c-0.091,0.281 -0.251,0.535 -0.464,0.739c-0.213,0.204 -0.473,0.352 -0.757,0.43c-0.237,0.103 -0.485,0.176 -0.74,0.219c-5.044,0.718 -8.727,4.002 -12.165,7.125c-5.045,4.533 -8.105,10.315 -6.583,17.549c0.798,3.773 2.026,4.364 5.28,2.423c3.413,-2.034 6.675,-4.331 10.088,-6.306c5.574,-3.191 11.241,-6.213 16.874,-9.285c1.236,-0.675 2.472,-1.359 3.733,-1.992l-0.563,0.287c1.404,-3.579 2.841,-7.142 4.203,-10.738c1.287,-3.3 0.37,-4.313 -3.203,-4.321Zm203.66,-20.817c1.211,-3.612 1.841,-4.22 5.482,-3.199c2.825,0.768 5.751,1.325 7.978,3.613c2.228,2.288 3.515,4.913 2.598,8.332c-0.74,2.76 -0,3.545 2.708,3.612c1.799,0.051 3.606,0 5.405,0l-0,-0.599c3.986,0 7.971,-0.093 11.947,0.059c1.254,0.014 2.463,0.472 3.414,1.292c2.362,2.532 1.118,5.622 -2.438,6.128c-2.523,0.363 -5.129,0.397 -7.702,0.549c-4.355,0.253 -8.71,0.54 -13.073,0.717c-2.842,0.118 -4.775,1.182 -5.936,3.976c-5.12,12.341 -11.198,24.277 -14.628,37.302c-1.337,5.065 -3.523,9.902 -5.129,14.907c-1.878,5.87 -3.638,11.779 -5.28,17.727c-1.849,6.694 -3.531,13.438 -5.229,20.174c-0.664,2.617 -1.278,5.251 -1.682,7.918c-0.151,0.912 0.311,1.925 0.488,2.887c0.841,-0.439 1.934,-0.675 2.522,-1.35c1.698,-1.932 3.241,-3.996 4.616,-6.171c4.327,-7.136 8.575,-14.322 12.745,-21.559c2.733,-4.727 5.39,-9.488 8.063,-14.249c-1.74,-4.904 -1.925,-10.366 -0.773,-16.215c2.118,-10.78 6.515,-20.69 14.04,-28.81c3.64,-3.934 8.063,-7.167 12.249,-10.569c2.043,-1.688 4.507,-1.612 6.979,-0.844c2.345,0.692 4.758,1.156 7.045,1.992c2.287,0.836 4.683,1.688 6.533,3.123c3.362,2.668 3.859,6.407 2.892,10.501c-1.884,7.96 -5.205,15.355 -8.677,22.682c-1.478,3.287 -3.162,6.476 -5.044,9.547c-1.523,2.224 -3.32,4.246 -5.347,6.019c-1.581,1.46 -3.481,1.688 -5.734,0.844c-2.814,-0.931 -5.369,-2.516 -7.458,-4.626c-0.916,-0.971 -2.026,-2.136 -3.27,-1.308c-0.943,0.811 -1.544,1.951 -1.681,3.19c-0.404,2.407 -0.483,4.857 -0.236,7.285c0.648,4.55 3.237,8.501 9.089,7.521c4.827,-0.851 9.316,-3.058 12.947,-6.364c6.247,-5.42 11.543,-11.725 16.756,-18.115c3.413,-4.221 7.02,-8.205 10.601,-12.249c0.554,-0.44 1.176,-0.785 1.842,-1.021c0.244,0.794 0.84,1.688 0.672,2.364c-1.681,5.52 -3.304,11.066 -6.784,15.819c-3.792,5.182 -7.374,10.526 -11.35,15.565c-2.416,3.004 -5.11,5.771 -8.046,8.264c-3.363,2.921 -7.567,3.596 -11.846,3.377c-6.129,0.337 -11.241,-2.161 -15.831,-5.529c-2.908,-2.077 -5.394,-4.693 -7.323,-7.707c-0.307,1.165 -0.677,2.312 -1.11,3.435c-3.212,8.264 -6.785,16.41 -10.543,24.48c-2.362,4.848 -4.986,9.562 -7.861,14.122c-2.522,4.137 -5.885,7.412 -10.727,8.914c-1.391,0.51 -2.877,0.706 -4.352,0.575c-1.474,-0.131 -2.902,-0.587 -4.182,-1.334c-7.508,-4.373 -10.728,-11.067 -8.937,-20.006c1.597,-7.952 3.363,-15.878 5.398,-23.729c-0.975,1.097 -2.016,2.132 -3.12,3.098c-4.59,4.035 -11.181,3.942 -16.167,0.338c-3.556,-2.532 -6.726,-5.664 -8.349,-9.918c-0.515,-1.57 -0.95,-3.164 -1.303,-4.778c0.454,-5.825 2.136,-11.252 3.817,-16.646c2.22,-6.829 4.397,-13.684 6.827,-20.445c1.438,-3.984 3.363,-7.8 5.045,-11.691c0.84,-2.001 1.799,-3.968 2.606,-5.993c1.042,-2.609 2.018,-3.377 4.7,-2.592c2.48,0.641 4.857,1.63 7.062,2.938c3.733,2.372 4.38,5.748 2.774,9.8c-3.59,9.074 -7.566,18.005 -10.929,27.164c-2.472,6.753 -4.204,13.784 -6.247,20.698c-0.103,0.239 -0.149,0.499 -0.135,0.76c0.219,1.063 0.488,2.11 0.732,3.173c0.841,-0.371 1.959,-0.531 2.589,-1.156c4.776,-4.668 9.896,-9.015 13.662,-14.629c0.214,-0.322 0.456,-0.624 0.723,-0.903c0.799,-0.844 1.43,-0.945 1.9,-0.354c3.246,-9.716 6.726,-19.365 10.173,-29.005c2.186,-6.044 4.683,-11.969 6.953,-17.979c1.244,-3.284 0.328,-4.297 -3.245,-4.305c-7.567,-0 -15.032,1.772 -22.591,2.144c-2.051,0.101 -4.111,0.084 -6.154,-0c-1.126,-0.06 -2.623,-0.186 -2.598,-1.689c-0,-1.325 1.438,-1.181 2.43,-1.333c7.491,-1.106 14.982,-2.237 22.481,-3.301c3.057,-0.552 6.146,-0.908 9.248,-1.064c1.296,0.048 2.573,-0.32 3.646,-1.05c1.073,-0.73 1.887,-1.784 2.324,-3.01c1.614,-3.79 3.043,-7.631 4.346,-11.531Zm-99.871,-8.719c1.059,-2.887 2.228,-3.444 5.398,-2.592c3.169,0.853 5.599,2.997 7.65,5.428c0.794,0.835 1.33,1.882 1.543,3.016c0.213,1.134 0.095,2.306 -0.34,3.374c-1.455,3.528 -2.968,7.065 -4.347,10.611c-0.79,2.026 -1.244,4.22 -2.144,6.179c-3.153,6.938 -6.633,13.708 -9.593,20.748c-2.959,7.04 -5.38,14.131 -7.953,21.23c-0.774,2.119 -1.329,4.339 -1.984,6.517l0.773,0.202c4.675,-7.361 9.248,-14.772 14.049,-22.057c3.573,-5.444 8.407,-9.682 13.721,-13.421c1.162,-0.765 2.472,-1.275 3.845,-1.494c1.372,-0.22 2.775,-0.145 4.117,0.219c2.78,0.622 5.486,1.542 8.071,2.743c6.221,2.921 7.734,8.678 8.928,14.418c0.976,4.677 -0.159,9.184 -0.84,13.675c-1.443,8.885 -4.626,17.395 -9.366,25.037c-0.75,1.32 -1.684,2.525 -2.775,3.579c-3.169,2.887 -6.322,5.807 -9.761,8.373c-4.439,3.326 -9.786,2.93 -15.133,1.241c-3.851,-1.215 -7.844,-2.102 -11.081,-5.14c-1.278,-1.199 -2.732,-1.165 -4.12,0.32c-2.244,2.415 -4.96,4.601 -8.861,3.056c-2.705,-1.087 -5.102,-2.826 -6.978,-5.065c-3.531,-4.111 -4.355,-8.441 -4.204,-12.898c-2.345,3.309 -4.699,6.61 -7.205,9.792c-2.415,3.004 -5.11,5.771 -8.046,8.264c-3.363,2.921 -7.566,3.596 -11.846,3.376c-6.129,0.338 -11.24,-2.161 -15.831,-5.529c-2.908,-2.077 -5.393,-4.692 -7.323,-7.706c-0.306,1.164 -0.677,2.311 -1.109,3.435c-3.212,8.264 -6.785,16.41 -10.543,24.48c-2.369,4.86 -5.002,9.585 -7.886,14.156c-2.523,4.136 -5.885,7.411 -10.728,8.914c-1.391,0.509 -2.876,0.706 -4.351,0.574c-1.475,-0.131 -2.903,-0.586 -4.183,-1.334c-7.507,-4.373 -10.727,-11.067 -8.937,-20.006c2.801,-14.529 6.485,-28.872 11.031,-42.949c3.438,-10.366 7.112,-20.656 10.82,-30.929c0.297,-0.827 0.603,-1.654 0.917,-2.481l-0.345,0.253l-0.975,0.658c-2.666,1.756 -5.516,3.115 -7.954,5.335c-2.438,2.22 -5.54,3.63 -8.332,5.436c-2.261,1.461 -4.539,2.904 -6.725,4.491c-3.523,2.533 -3.834,3.917 -2.043,7.783c0.647,1.401 1.395,2.752 2.043,4.153c4.598,9.927 2.244,18.841 -4.204,27.012c-2.741,3.469 -6.818,4.415 -11.056,4.609l-2.707,0c-6.726,-0.599 -13.115,-2.313 -18.446,-6.753l0.059,0.051l-0.244,0.396c-3.363,5.209 -9.382,6.323 -14.982,3.048l-0.386,-0.237c-5.995,-3.739 -9.627,-9.133 -10.19,-16.317c-0.091,-1.212 -0.282,-2.415 -0.572,-3.596c-0.143,-0.565 -0.656,-1.468 -0.983,-1.477c-0.308,0.026 -0.606,0.12 -0.873,0.274c-0.268,0.155 -0.498,0.367 -0.674,0.621c-3.809,5.461 -7.365,11.125 -11.401,16.393c-2.32,3.03 -5.347,5.47 -9.752,5.115c-3.363,-0.27 -6.802,0.152 -9.896,-2.178c-5.347,-4.018 -8.609,-9.133 -8.987,-16.941c-0.403,-6.247 1.197,-12.459 4.565,-17.727c3.506,-5.554 6.507,-11.497 10.358,-16.764c3.068,-4.221 7.07,-7.665 10.685,-11.421c1.043,-1.28 2.25,-2.415 3.59,-3.377c2.141,-1.204 4.58,-1.766 7.029,-1.62c6.736,0.156 13.215,2.63 18.353,7.006c2.455,2.026 3.103,1.857 4.33,-0.844c0.269,-0.591 0.538,-1.182 0.799,-1.781c1.74,-3.993 2.203,-4.221 6.457,-3.622c5.111,0.76 9.601,6.534 8.407,11.54c-1.009,4.178 -2.909,8.069 -4.422,12.079c-1.867,4.989 -3.691,9.994 -5.625,14.958c-1.177,3.039 -2.682,5.909 -3.758,9.007c-1.027,2.965 -1.842,6 -2.438,9.082c-0.193,0.98 0.572,2.229 0.9,3.377c1.034,-0.296 2.312,-0.304 3.06,-0.945l0.218,-0.186c-0.731,-1.334 -0.554,-2.651 0.648,-4.263c1.603,-2.172 3.477,-4.129 5.574,-5.824c5.524,-4.407 11.215,-8.602 16.815,-12.873c0.714,-0.549 1.488,-1.022 2.186,-1.596c2.177,-1.798 2.522,-3.207 1.286,-5.748c-1.236,-2.541 -2.346,-4.871 -3.666,-7.226c-1.672,-2.838 -2.662,-6.028 -2.893,-9.318c-0.23,-3.289 0.305,-6.587 1.565,-9.633c1.623,-4.094 4.893,-7.192 8.138,-10.129c0.671,-0.604 1.394,-1.146 2.161,-1.621c2.774,-1.73 5.582,-2.937 9.08,-2.186c2.292,0.46 4.542,1.112 6.726,1.95c5.254,-0.777 10.517,-1.562 15.78,-2.313c3.044,-0.537 6.119,-0.878 9.207,-1.021c1.295,0.047 2.572,-0.321 3.645,-1.051c1.073,-0.73 1.887,-1.784 2.324,-3.01c1.606,-3.773 3.043,-7.597 4.346,-11.53c1.211,-3.613 1.842,-4.221 5.482,-3.2c2.825,0.768 5.751,1.326 7.979,3.613c2.228,2.288 3.514,4.913 2.597,8.332c-0.739,2.76 -0,3.545 2.708,3.613c1.799,0.05 3.606,-0 5.406,-0l-0,-0.6c3.985,0 7.97,-0.093 11.946,0.059c1.254,0.014 2.463,0.472 3.414,1.292c2.362,2.532 1.118,5.622 -2.438,6.128c-2.522,0.363 -5.129,0.397 -7.701,0.549c-4.355,0.253 -8.71,0.54 -13.074,0.717c-2.842,0.119 -4.775,1.182 -5.936,3.976c-4.985,12.223 -11.106,24.159 -14.544,37.15c-1.337,5.065 -3.523,9.902 -5.129,14.907c-1.877,5.87 -3.637,11.779 -5.28,17.727c-1.849,6.694 -3.531,13.438 -5.229,20.175c-0.664,2.616 -1.286,5.25 -1.681,7.917c-0.152,0.912 0.311,1.925 0.487,2.887c0.841,-0.439 1.934,-0.675 2.522,-1.35c1.698,-1.932 3.241,-3.996 4.616,-6.171c4.327,-7.135 8.576,-14.322 12.746,-21.559c2.732,-4.727 5.389,-9.488 8.062,-14.249c-1.74,-4.904 -1.925,-10.365 -0.773,-16.215c2.127,-10.78 6.516,-20.69 14.04,-28.81c3.641,-3.934 8.063,-7.167 12.25,-10.569c2.043,-1.688 4.506,-1.612 6.978,-0.844c2.345,0.692 4.758,1.157 7.045,1.992c2.287,0.836 4.683,1.689 6.533,3.124c3.363,2.667 3.859,6.407 2.892,10.501c-1.883,7.96 -5.204,15.354 -8.677,22.681c-1.477,3.287 -3.162,6.476 -5.044,9.547c-1.515,2.223 -3.303,4.245 -5.322,6.019c-1.58,1.46 -3.481,1.688 -5.734,0.844c-2.814,-0.93 -5.369,-2.515 -7.457,-4.626c-0.916,-0.971 -2.026,-2.135 -3.271,-1.308c-0.942,0.811 -1.543,1.952 -1.681,3.191c-0.403,2.406 -0.482,4.857 -0.235,7.284c0.647,4.55 3.236,8.501 9.088,7.522c4.828,-0.852 9.317,-3.059 12.947,-6.365c6.247,-5.419 11.544,-11.725 16.756,-18.115c1.682,-2.093 3.472,-4.153 5.255,-6.196c2.176,-7.842 4.804,-15.55 7.869,-23.087c2.528,-6.426 5.199,-12.785 8.012,-19.077c2.439,-5.461 5.263,-10.72 7.702,-16.173c1.252,-2.811 2.362,-5.707 3.43,-8.611l1.244,-3.477Z" style="fill:currentColor;"/></svg>
